<?xml version="1.0" encoding="UTF-8"?>
<svg xmlns="http://www.w3.org/2000/svg" xmlns:xlink="http://www.w3.org/1999/xlink" viewBox="0 0 100 100" width="100px" height="100px">
<g id="surface63624585">
<path style=" stroke:none;fill-rule:nonzero;fill:rgb(87.058824%,85.882354%,87.843138%);fill-opacity:1;" d="M 18 8 C 12.5 8 8 12.5 8 18 L 8 82 C 8 87.5 12.5 92 18 92 L 51.664062 92 C 51.878906 92.035156 52.101562 92.035156 52.316406 92 L 63.664062 92 C 63.878906 92.035156 64.101562 92.035156 64.316406 92 L 82 92 C 87.5 92 92 87.5 92 82 L 92 18 C 92 12.5 87.5 8 82 8 Z M 18 12 L 82 12 C 85.335938 12 88 14.664062 88 18 L 88 82 C 88 85.335938 85.335938 88 82 88 L 66 88 L 66 60 L 73.640625 60 L 76.441406 46 L 66 46 L 66 42 C 66 40.886719 66.105469 40.796875 66.480469 40.554688 C 66.855469 40.3125 68.011719 40 70 40 L 76 40 L 76 28.738281 L 74.859375 28.195312 C 74.859375 28.195312 70.265625 26 64 26 C 59.5 26 55.804688 27.792969 53.4375 30.75 C 51.070312 33.707031 50 37.667969 50 42 L 50 46 L 44 46 L 44 60 L 50 60 L 50 88 L 18 88 C 14.664062 88 12 85.335938 12 82 L 12 18 C 12 14.664062 14.664062 12 18 12 Z M 64 30 C 68.15625 30 70.773438 30.917969 72 31.402344 L 72 36 L 70 36 C 67.699219 36 65.855469 36.191406 64.300781 37.199219 C 62.746094 38.207031 62 40.121094 62 42 L 62 50 L 71.558594 50 L 70.359375 56 L 62 56 L 62 88 L 54 88 L 54 56 L 48 56 L 48 50 L 54 50 L 54 42 C 54 38.332031 54.929688 35.292969 56.5625 33.25 C 58.195312 31.207031 60.5 30 64 30 Z M 64 30 "/>
</g>
</svg>
